<?xml version="1.0" encoding="UTF-8" standalone="no"?>
<!DOCTYPE svg PUBLIC "-//W3C//DTD SVG 1.1//EN" "http://www.w3.org/Graphics/SVG/1.1/DTD/svg11.dtd">
<svg width="100%" height="100%" viewBox="0 0 2481 2481" version="1.1" xmlns="http://www.w3.org/2000/svg" xmlns:xlink="http://www.w3.org/1999/xlink" xml:space="preserve" xmlns:serif="http://www.serif.com/" style="fill-rule:evenodd;clip-rule:evenodd;stroke-linejoin:round;stroke-miterlimit:2;">
  <path d="M2409,1069.67C2272.09,1098.42 2153.03,1124.29 1908.89,1118.88C1747.55,1115.3 1320.8,1037.6 1098.85,985.167C889.626,935.734 795.739,941.518 674.92,957.204C373.413,996.348 162.677,1123.79 65.632,1195.6C79.245,555.605 596.829,59.055 1240.16,59.055C1834.14,59.055 2326.3,498.471 2409,1069.67Z" style="fill:rgb(128,126,149);"/>
  <path d="M2154.55,1176.64C2242.55,1162.24 2363.86,1144.19 2415.01,1129.98C2415.01,1129.98 2421.26,1187.36 2421.26,1240.16C2421.26,1892.03 1892.03,2421.26 1240.16,2421.26C589.202,2421.26 75.31,1952.6 73.832,1302.07C73.832,1302.07 251.148,1166.73 512.746,1086.59L796.235,1594.91L1204.71,1071.27C1391.93,1107.66 1340.28,1100.81 1668.54,1148.66L1860.29,1577.7L2154.55,1176.64Z" style="fill:rgb(128,126,149);"/>
</svg>
