<?xml version="1.0" encoding="UTF-8" standalone="no"?>
<!DOCTYPE svg PUBLIC "-//W3C//DTD SVG 1.1//EN" "http://www.w3.org/Graphics/SVG/1.1/DTD/svg11.dtd">
<svg width="100%" height="100%" viewBox="0 0 112 128" version="1.1" xmlns="http://www.w3.org/2000/svg" xmlns:xlink="http://www.w3.org/1999/xlink" xml:space="preserve" xmlns:serif="http://www.serif.com/" style="fill-rule:evenodd;clip-rule:evenodd;stroke-linejoin:round;stroke-miterlimit:2;">
    <g transform="matrix(1,0,0,1,-278.158,3.27171e-06)">
        <g id="g3363" transform="matrix(1.33333,0,0,-1.33333,-180.534,935.798)">
            <g id="g3365" transform="matrix(1,0,0,1,420.064,651.157)">
                <path id="path3367" d="M0,0L-13.652,-13.651L-35.097,-13.651L-46.796,-25.348L-46.796,-13.651L-64.344,-13.651L-64.344,42.893L0,42.893L0,0ZM-72.146,50.692L-76.045,35.093L-76.045,-35.097L-58.495,-35.097L-58.495,-44.848L-48.749,-44.848L-38.997,-35.097L-23.401,-35.097L7.795,-3.905L7.795,50.692L-72.146,50.692Z" />
            </g>
            <path id="path3369" d="M377.167,655.053L384.966,655.053L384.966,678.454L377.167,678.454L377.167,655.053ZM398.613,655.053L406.412,655.053L406.412,678.454L398.613,678.454L398.613,655.053Z" />
        </g>
    </g>
</svg>
